# xmcd
#
# Track frame offsets:
#	150
#	19744
#	36216
#	54525
#	74309
#	95219
#	114741
#	135768
#	153819
#	174463
#	191751
#	210923
#
# Disc length: 3036 seconds
#
# Revision: 0
# Processed by: cddbd v1.5.2PL0 Copyright (c) Steve Scherf et al.
# Submitted via: audiograbber 1.83.01
#
DISCID=9d0bda0c
DTITLE=Maranatha Singers - 12 Praise 'Yesus, Tuhanku Ajaib' Cha-Cha
DYEAR=2012
DGENRE=Country
TTITLE0=Yesus Tuhanku ajaib
TTITLE1=Yesuslah pengharapanku
TTITLE2=Tuhan memberiku kegirangan
TTITLE3=Gelombang kesembuhan
TTITLE4=Tuhan Yesus baik
TTITLE5=Bersoraklah bagi Tuhan
TTITLE6=Dia gembala
TTITLE7=Kasih Allah tak berkesudahan
TTITLE8=Segala puji syukur
TTITLE9=Tuhan Yesus baik
TTITLE10=Langit dan bumi pujilah Tuhan
TTITLE11=Tuhan Allah hadir disini
EXTD=
EXTT0=
EXTT1=
EXTT2=
EXTT3=
EXTT4=
EXTT5=
EXTT6=
EXTT7=
EXTT8=
EXTT9=
EXTT10=
EXTT11=
PLAYORDER=
